<?xml version="1.0" standalone="no"?>
<!DOCTYPE svg PUBLIC "-//W3C//DTD SVG 1.1//EN" "http://www.w3.org/Graphics/SVG/1.1/DTD/svg11.dtd" >
<svg xmlns="http://www.w3.org/2000/svg">
<metadata></metadata>
<defs>
<font id="unionbold_italic" horiz-adv-x="1138" >
<font-face units-per-em="2048" ascent="1536" descent="-512" />
<missing-glyph horiz-adv-x="505" />
<glyph unicode="&#xfb01;" horiz-adv-x="1251" d="M74 0l180 858h-166l43 203h166l57 219q25 93 111 147t211 54q137 0 239 -31l-51 -207q-94 23 -131 23q-93 0 -112 -74l-35 -131h205l-41 -203h-207l-181 -858h-288zM729 0l223 1061h291l-223 -1061h-291zM985 1214l53 250h291l-55 -250h-289z" />
<glyph unicode="&#xfb02;" horiz-adv-x="1251" d="M74 0l180 858h-166l43 203h166l57 219q25 93 111 147t211 54q137 0 239 -31l-51 -207q-94 23 -131 23q-93 0 -112 -74l-35 -131h205l-41 -203h-207l-181 -858h-288zM727 0l309 1464h289l-309 -1464h-289z" />
<glyph horiz-adv-x="0" />
<glyph horiz-adv-x="682" />
<glyph unicode=" "  horiz-adv-x="505" />
<glyph unicode="&#x09;" horiz-adv-x="505" />
<glyph unicode="&#xa0;" horiz-adv-x="505" />
<glyph unicode="!" horiz-adv-x="645" d="M59 0l64 295h303l-64 -295h-303zM217 406l70 688l78 370h305l-82 -383l-221 -675h-150z" />
<glyph unicode="&#x22;" horiz-adv-x="976" d="M285 874l2 302l26 288h262l-26 -288l-51 -302h-213zM655 874l2 302l27 288h262l-26 -288l-52 -302h-213z" />
<glyph unicode="#" d="M76 387l10 203h178l47 274h-205l11 203h229l70 397h211l-70 -397h211l66 397h215l-68 -397h156l-11 -203h-180l-47 -274h207l-10 -203h-234l-67 -397h-211l67 397h-209l-69 -397h-213l69 397h-153zM475 590h211l47 274h-209z" />
<glyph unicode="$" d="M51 459l266 6q6 -207 152 -250l86 432q-24 10 -59 29q-57 32 -95.5 57t-79 60.5t-63.5 72t-38 86.5t-15 109q0 132 77 235.5t195.5 154t247.5 42.5l27 125h118l-26 -139q146 -34 233.5 -136t87.5 -262v-6l-262 -6q-6 129 -106 178l-76 -385q86 -33 148.5 -70t112.5 -87 t75.5 -115t25.5 -146q0 -110 -44 -202t-118.5 -152t-172 -92t-205.5 -29l-37 -176h-121l37 189q-174 28 -271 149t-100 328zM465 1087q0 -112 143 -174l72 355q-88 0 -151.5 -51t-63.5 -130zM588 199q101 6 169 62t68 153q0 66 -37 106.5t-120 79.5z" />
<glyph unicode="%" horiz-adv-x="1896" d="M168 989q0 216 112 346.5t281 130.5q140 0 219.5 -80t79.5 -227q0 -212 -114 -344.5t-289 -132.5q-135 0 -212 83.5t-77 223.5zM305 -53l1168 1544h200l-1163 -1544h-205zM378.5 1004.5q-5.5 -46.5 0.5 -84t29 -57t63 -19.5q47 0 84 39.5t57.5 98t30.5 115.5t10 103 q0 44 -25 74.5t-65 30.5q-44 0 -80 -34t-54.5 -74t-29.5 -83q-15 -63 -20.5 -109.5zM1112 266q0 216 112 346.5t281 130.5q140 0 219.5 -80t79.5 -227q0 -212 -114 -344.5t-289 -132.5q-135 0 -212 83.5t-77 223.5zM1322.5 281.5q-5.5 -46.5 0.5 -84t29 -57t63 -19.5 q47 0 84 39.5t57.5 98t30.5 115.5t10 103q0 44 -25 74.5t-65 30.5q-44 0 -80 -34t-54.5 -74t-29.5 -83q-15 -63 -20.5 -109.5z" />
<glyph unicode="&#x26;" horiz-adv-x="1441" d="M100 383q0 206 176 352q67 56 211 125q-81 155 -81 252q0 169 116 271t289 102q42 0 87.5 -8.5t96.5 -30.5t90 -55.5t65 -88t26 -122.5q0 -227 -342 -406l194 -287q30 30 53.5 74t55.5 117l237 -70q-25 -87 -78 -173.5t-118 -145.5q51 -70 165 -213l-249 -92 q-61 54 -121 127q-178 -138 -404 -138q-205 0 -337 114t-132 296zM383 395q0 -83 55 -134.5t146 -51.5q131 0 245 96q-111 152 -231 357q-107 -59 -161 -118t-54 -149zM668 1143q0 -69 59 -178q205 98 205 213q0 52 -32 84t-83 32q-64 0 -106.5 -40.5t-42.5 -110.5z" />
<glyph unicode="'" horiz-adv-x="528" d="M268 874l2 302l27 288h262l-27 -288l-51 -302h-213z" />
<glyph unicode="(" horiz-adv-x="645" d="M94 297q0 226 60.5 430t183.5 406q87 146 266 360h238q-187 -230 -289 -434q-197 -394 -197 -883q0 -244 90 -577h-208q-66 154 -105 350t-39 348z" />
<glyph unicode=")" horiz-adv-x="645" d="M-195 -401q180 225 287 432q197 383 197 884q0 252 -88 578h209q65 -153 104 -350t39 -348q0 -226 -60.5 -430t-183.5 -406q-97 -155 -268 -360h-236z" />
<glyph unicode="*" horiz-adv-x="815" d="M137 1171l66 164q132 -61 227 -114q0 11 -1 124t-1 132l180 -4q-8 -67 -37 -267q160 54 250 78l41 -170q-159 -28 -252 -43l148 -209l-152 -90l-123 223q-45 -65 -157 -215l-136 117l187 190q-26 9 -119.5 41.5t-120.5 42.5z" />
<glyph unicode="+" horiz-adv-x="1212" d="M133 500v241h395v396h238v-396h395v-241h-395v-394h-238v394h-395z" />
<glyph unicode="," horiz-adv-x="569" d="M-39 -330l31 140q77 10 116.5 55.5t57.5 134.5h-137l63 295h305l-47 -227q-19 -96 -47 -164.5t-72.5 -122.5t-111.5 -81.5t-158 -29.5z" />
<glyph unicode="-" horiz-adv-x="757" d="M68 412l55 264h586l-56 -264h-585z" />
<glyph unicode="." horiz-adv-x="569" d="M33 0l61 295h305l-63 -295h-303z" />
<glyph unicode="/" horiz-adv-x="755" d="M-27 -29l650 1522h217l-650 -1522h-217z" />
<glyph unicode="0" d="M61 500q0 101 19.5 210.5t56 217.5t94 204.5t128 170.5t163.5 117.5t195 43.5q216 0 329 -136.5t113 -385.5q0 -120 -24 -249.5t-78 -259t-129.5 -231t-188 -165.5t-245.5 -64q-207 0 -320 144.5t-113 382.5zM348 440q0 -225 158 -225q53 0 98.5 25t79 66t62.5 102 t48.5 125t36.5 143q36 166 39 272q9 283 -170 283q-205 0 -309 -459q-43 -184 -43 -332z" />
<glyph unicode="1" d="M223 872l58 254q184 31 312 103.5t206 204.5h207l-308 -1434h-299l215 981q-48 -37 -163.5 -71t-227.5 -38z" />
<glyph unicode="2" d="M8 0q22 248 250 432q232 186 438 359q83 71 123.5 130t40.5 126q0 88 -51.5 135t-134.5 47q-94 0 -155.5 -69.5t-76.5 -196.5l-278 20q29 231 166.5 357t355.5 126q64 0 124.5 -11.5t122.5 -41t108 -74.5t75 -118t29 -166q0 -182 -158 -348q-40 -42 -175 -151t-269 -200 q-90 -59 -115 -106h612l-55 -250h-977z" />
<glyph unicode="3" d="M16 436l277 17q-4 -116 52 -180t155 -64q109 0 180.5 68t71.5 180q0 90 -54.5 138t-144.5 48q-49 0 -74 -2l43 223q20 -2 60 -2q117 0 182 61t65 140q0 78 -43.5 123t-121.5 45q-93 0 -148.5 -53.5t-83.5 -169.5l-268 26q38 203 173.5 317.5t338.5 114.5 q126 0 223.5 -39.5t158 -126t60.5 -210.5q0 -119 -71 -210.5t-189 -125.5v-6q191 -78 191 -289q0 -209 -152 -347.5t-403 -138.5q-224 0 -349 120t-129 343z" />
<glyph unicode="4" d="M-8 315l51 252l815 867h266l-188 -877h184l-51 -242h-184l-68 -315h-272l67 315h-620zM303 557h361l104 494h-2z" />
<glyph unicode="5" d="M47 418l279 -2q1 -101 55.5 -153t146.5 -52q117 0 199 97.5t82 236.5q0 109 -55 167t-154 58q-128 0 -219 -113l-250 9l238 768h792l-53 -252h-549l-78 -256l4 -4q84 63 220 63q73 0 140.5 -25t125 -74t91.5 -132.5t34 -190.5q0 -91 -24 -177t-73 -161t-117 -131 t-163 -88.5t-205 -32.5q-214 0 -340 118t-127 327z" />
<glyph unicode="6" d="M96 537q0 131 23.5 259t75.5 250t128 214.5t190 149t251 56.5q181 0 291 -95t125 -286l-275 -12q-4 83 -45.5 126.5t-111.5 43.5q-212 0 -326 -377l2 -2q49 53 119.5 80t144.5 27q188 0 298 -121t110 -315q0 -152 -67.5 -280t-190.5 -205t-275 -77q-227 0 -347 146 t-120 418zM375 440q0 -107 52.5 -170t135.5 -63q107 0 177.5 89.5t70.5 235.5q0 107 -51 169.5t-121 62.5q-69 0 -122 -29.5t-83 -78t-44.5 -103.5t-14.5 -113z" />
<glyph unicode="7" d="M174 1165l55 269h994l-49 -228q-140 -113 -284 -323.5t-249.5 -447t-146.5 -435.5h-299q83 316 253.5 626t391.5 539h-666z" />
<glyph unicode="8" d="M47 387q0 151 90 254.5t242 146.5v3q-166 96 -166 272q0 168 139.5 285.5t360.5 117.5q200 0 315 -110t115 -262q0 -107 -70.5 -196t-191.5 -128v-2q92 -36 146 -123t54 -194q0 -140 -72 -249.5t-198 -169t-283 -59.5q-99 0 -180.5 24t-136 64.5t-92.5 94t-55 112 t-17 119.5zM336 393q0 -83 55.5 -139.5t147.5 -56.5q122 0 191 81.5t69 192.5q0 91 -59 144t-148 53q-106 0 -181 -74.5t-75 -200.5zM473 1047q0 -81 58 -125.5t135 -44.5q94 0 154.5 59t60.5 135q0 83 -54.5 129.5t-136.5 46.5q-97 0 -157 -55.5t-60 -144.5z" />
<glyph unicode="9" d="M51 354l277 11q4 -82 45 -125t110 -43q41 0 78 14.5t64.5 36.5t53 56t43 65.5t34 72.5t26 68.5t19.5 62.5h-6q-96 -104 -252 -104q-189 0 -297.5 120t-108.5 314q0 81 21 160.5t65.5 152.5t106.5 128.5t150 88.5t190 33q234 0 350.5 -152t116.5 -417q0 -82 -10 -166.5 t-33.5 -176t-59 -174.5t-89.5 -158t-121 -130t-158.5 -87t-196.5 -32q-183 0 -295.5 97.5t-122.5 283.5zM420 905q0 -113 51.5 -171t136.5 -58q53 0 97 21.5t71.5 55.5t46.5 78t27 85.5t8 80.5q0 108 -53 171t-137 63q-112 0 -180 -93t-68 -233z" />
<glyph unicode=":" horiz-adv-x="626" d="M59 0l64 295h303l-64 -295h-303zM217 756l64 297h303l-64 -297h-303z" />
<glyph unicode=";" horiz-adv-x="626" d="M-6 -330l31 140q77 10 116.5 55.5t57.5 134.5h-138l64 295h305l-47 -227q-19 -96 -47 -164.5t-72.5 -122.5t-111.5 -81.5t-158 -29.5zM217 756l64 297h303l-64 -297h-303z" />
<glyph unicode="&#x3c;" horiz-adv-x="1212" d="M135 502v241l1022 424v-260l-725 -284l725 -287v-260z" />
<glyph unicode="=" horiz-adv-x="1212" d="M133 281v239h1028v-239h-1028zM133 721v240h1028v-240h-1028z" />
<glyph unicode="&#x3e;" horiz-adv-x="1212" d="M135 76v258l727 289l-727 284v260l1024 -426v-239z" />
<glyph unicode="?" horiz-adv-x="1214" d="M201 1036q32 217 184 337t377 120q203 0 329 -101.5t126 -271.5q0 -61 -20.5 -117.5t-49.5 -97t-75 -83t-81.5 -67.5t-85.5 -57q-138 -88 -188 -163q-30 -44 -43 -127h-264q19 121 63 200q39 72 133 161.5t199 156.5q62 41 93.5 85.5t31.5 104.5q0 70 -51 111t-138 41 q-108 0 -175 -67t-89 -187zM307 0l62 295h305l-53 -295h-314z" />
<glyph unicode="@" horiz-adv-x="1818" d="M102 606q0 186 67 350t184.5 282t286.5 186.5t364 68.5q216 0 393.5 -84.5t283 -244.5t105.5 -367q0 -97 -29 -193.5t-82 -179t-123 -147t-158 -101.5t-180 -37q-144 0 -163 115h-4q-95 -117 -246 -117q-154 0 -253 114t-99 271q0 129 41.5 241.5t110.5 189t158 120 t183 43.5q81 0 147.5 -34.5t104.5 -104.5l29 110h215l-154 -698q-6 -27 4.5 -44t30.5 -17q65 0 122.5 46t94 115t57.5 146.5t21 144.5q0 240 -163.5 390.5t-449.5 150.5q-162 0 -296.5 -56.5t-224 -154t-138.5 -229.5t-49 -283q0 -139 47 -258.5t135.5 -209.5t227.5 -141.5 t313 -51.5q370 0 551 221h207q-51 -90 -124.5 -159.5t-151 -112t-165.5 -70t-164.5 -37.5t-152.5 -10q-220 0 -396.5 66t-288 181t-170.5 265.5t-59 324.5zM682 541q0 -101 47 -158t121 -57q112 0 196 115t87 284q1 92 -48 147.5t-124 55.5q-65 0 -120 -37t-88.5 -95 t-52 -125t-18.5 -130z" />
<glyph unicode="A" horiz-adv-x="1441" d="M-90 0l846 1464h331l242 -1464h-303l-47 324h-565l-181 -324h-323zM530 565h416l-80 586h-2z" />
<glyph unicode="B" horiz-adv-x="1478" d="M37 0l307 1464h653q219 0 321.5 -95t102.5 -255q0 -127 -72 -220t-204 -122v-2q106 -30 166.5 -110.5t60.5 -184.5q0 -42 -7 -84t-25.5 -89.5t-47 -90t-76 -82t-108.5 -67.5t-147 -45t-189 -17h-735zM393 242h379q144 0 215.5 63.5t71.5 161.5q0 168 -246 168h-338z M524 872l338 2q121 1 184.5 57t63.5 138q0 69 -48 108.5t-134 39.5h-330z" />
<glyph unicode="C" horiz-adv-x="1470" d="M111 608q0 190 60 354.5t163.5 281t249.5 183t313 66.5q251 0 406.5 -134t164.5 -374l-305 -14q-12 130 -81 194t-187 64q-75 0 -141.5 -25.5t-112 -63.5t-83 -89t-58.5 -93.5t-35 -85.5q-41 -125 -41 -264q0 -76 15 -139t48.5 -119t96 -87.5t149.5 -31.5q124 0 220.5 81 t131.5 214l312 -22q-178 -535 -676 -535q-290 0 -450 166.5t-160 472.5z" />
<glyph unicode="D" horiz-adv-x="1492" d="M37 0l309 1464h537q282 0 431.5 -156t149.5 -434q0 -83 -11.5 -164t-40 -169t-72 -164.5t-113 -147t-157.5 -120.5t-211.5 -79.5t-268.5 -29.5h-553zM403 252h168q168 0 259 35.5t151 97.5q80 81 126 201t46 266q0 59 -7 105.5t-28.5 95.5t-58 81t-99 53t-147.5 21h-209z " />
<glyph unicode="E" horiz-adv-x="1363" d="M37 0l305 1464h1102l-53 -258h-789l-67 -321h745l-51 -248h-748l-84 -379h830l-53 -258h-1137z" />
<glyph unicode="F" horiz-adv-x="1232" d="M37 0l307 1464h1034l-55 -258h-721l-74 -344h670l-53 -248h-668l-129 -614h-311z" />
<glyph unicode="G" horiz-adv-x="1531" d="M113 668q14 196 84.5 354.5t180 260t247 156t290.5 54.5q263 0 427 -124t190 -365l-303 -17q-43 250 -311 250q-223 0 -362.5 -171.5t-139.5 -465.5q0 -171 85 -271t244 -100q77 0 142 19.5t110 50.5t79 73t52.5 85t26.5 88h-352l49 241h641q-34 -180 -61 -286 q-24 -98 -81.5 -190.5t-143.5 -169t-208 -123t-260 -46.5q-149 0 -265 41t-186 108t-113 159t-57 188q-8 60 -8 124q0 38 3 77z" />
<glyph unicode="H" horiz-adv-x="1492" d="M37 0l307 1464h313l-118 -565h579l119 565h313l-309 -1464h-311l135 643h-580l-135 -643h-313z" />
<glyph unicode="I" horiz-adv-x="591" d="M37 0l307 1464h313l-309 -1464h-311z" />
<glyph unicode="J" horiz-adv-x="1136" d="M10 328q0 52 15 151l286 15q-16 -94 -16 -123q0 -57 41 -91t100 -34q189 0 228 182l219 1036h309l-215 -1028q-48 -231 -178 -348t-357 -117q-198 0 -315 91t-117 266z" />
<glyph unicode="K" horiz-adv-x="1478" d="M37 0l305 1464h311l-129 -618h2l672 618h414l-680 -590l467 -874h-352l-349 678l-254 -223l-94 -455h-313z" />
<glyph unicode="L" horiz-adv-x="1208" d="M37 0l307 1464h311l-252 -1206h727l-55 -258h-1038z" />
<glyph unicode="M" horiz-adv-x="1779" d="M37 0l307 1464h438l78 -1044h2l533 1044h440l-307 -1464h-289l279 1190h-2l-598 -1190h-267l-98 1194h-2l-225 -1194h-289z" />
<glyph unicode="N" horiz-adv-x="1488" d="M37 0l307 1464h307l398 -1011h2l206 1011h289l-309 -1464h-301l-397 1006h-2l-209 -1006h-291z" />
<glyph unicode="O" horiz-adv-x="1570" d="M106 594q0 182 57.5 345.5t160.5 286.5t256.5 195t334.5 72q100 0 190 -21.5t171 -69.5t140 -118.5t93.5 -176t34.5 -235.5q0 -192 -62.5 -360t-170 -287t-258.5 -187.5t-322 -68.5q-132 0 -240 37t-178 98.5t-118 143.5t-68.5 168.5t-20.5 177.5zM410 594q0 -34 6 -70.5 t19.5 -79.5t39.5 -81t61.5 -69.5t91 -50t122.5 -18.5q134 0 246.5 85.5t176.5 231.5t64 318q0 169 -87.5 273t-244.5 104q-102 0 -187.5 -42.5t-141 -110.5t-94 -154.5t-55.5 -171t-17 -164.5z" />
<glyph unicode="P" horiz-adv-x="1366" d="M37 0l305 1464h590q83 0 152 -13.5t118 -36.5t87 -55.5t61 -67t37.5 -75t20 -76.5t5.5 -73q0 -110 -39.5 -204.5t-115.5 -166.5t-196 -113.5t-271 -41.5h-328l-115 -541h-311zM514 788h258q95 0 163 24t102.5 64.5t49.5 83.5t15 91q0 86 -53.5 127t-165.5 41h-279z" />
<glyph unicode="Q" horiz-adv-x="1570" d="M109 596q0 140 36 272.5t106.5 245t167 198t225.5 133.5t274 48q154 0 275.5 -52t197 -142t115.5 -206q38 -113 38 -242v-7q0 -188 -83 -381.5t-222 -310.5q94 -117 180 -164l-157 -166q-114 75 -215 209q-149 -62 -314 -62q-288 0 -456 171t-168 456zM418 604 q0 -165 89 -269t245 -104q78 0 118 21q-42 67 -139 127l141 153q113 -65 183 -163q84 90 131 220.5t47 262.5q-1 78 -19.5 144t-56 120.5t-102 85.5t-148.5 31q-91 0 -171.5 -38t-137.5 -101.5t-98.5 -145t-61.5 -169.5t-20 -175z" />
<glyph unicode="R" horiz-adv-x="1474" d="M37 0l307 1464h680q95 0 172 -22.5t127 -60t84 -88.5t48.5 -104t14.5 -110q0 -160 -107.5 -275.5t-291.5 -141.5v-3q88 -43 125 -141q19 -51 44 -158t53.5 -203t64.5 -157h-334q-27 57 -46 131t-37.5 172.5t-31.5 149.5q-36 135 -217 135h-221l-123 -588h-311zM520 813 h297q81 0 143.5 15.5t99.5 39t60 57t31 64.5t8 66q0 78 -55 120t-154 42h-346z" />
<glyph unicode="S" horiz-adv-x="1347" d="M70 479l297 13v-7q0 -65 17 -113q18 -50 46 -78.5t70.5 -45.5t81.5 -22t88 -5q124 0 201 52t77 141q0 49 -32.5 83.5t-92.5 61.5q-40 18 -99.5 40t-103.5 38t-98 40t-93 47t-78.5 56.5t-64 71t-40 89t-15.5 112.5q0 92 34.5 168t90 125.5t129.5 83.5t150 48.5t153 14.5 q248 0 397 -117.5t156 -339.5l-297 -10q-3 111 -73 167t-193 56q-111 0 -177 -43.5t-66 -124.5q0 -85 131 -141q43 -18 109 -43t107.5 -41t96.5 -41t90 -47.5t72.5 -56t58.5 -70t35 -86.5t14 -109q0 -95 -37 -180t-108 -151t-185 -105t-257 -39q-592 0 -592 508z" />
<glyph unicode="T" horiz-adv-x="1251" d="M178 1206l55 258h1188l-55 -258h-430l-252 -1206h-313l252 1206h-445z" />
<glyph unicode="U" horiz-adv-x="1501" d="M137 412q0 58 37 243l170 809h311l-172 -821q-37 -181 -37 -215q0 -80 64.5 -138.5t196.5 -58.5q119 0 212.5 68t116.5 178l209 987h314l-201 -950q-31 -144 -93 -250t-149.5 -169.5t-193 -93.5t-232.5 -30q-255 0 -404 120t-149 321z" />
<glyph unicode="V" horiz-adv-x="1363" d="M188 1464h308l137 -1104h4l580 1104h323l-792 -1464h-342z" />
<glyph unicode="W" horiz-adv-x="1959" d="M195 1464h305l18 -1048h2l484 1048h317l35 -1042h2l465 1042h307l-696 -1464h-314l-35 1057h-2l-493 -1057h-318z" />
<glyph unicode="X" horiz-adv-x="1366" d="M-102 0l655 756l-352 708h331l232 -495l405 495h379l-639 -739l361 -725h-346l-228 496l-409 -496h-389z" />
<glyph unicode="Y" horiz-adv-x="1339" d="M160 1464h323l246 -626l442 626h365l-692 -917l-113 -547h-313l119 569z" />
<glyph unicode="Z" horiz-adv-x="1288" d="M-18 0l51 248l923 962l-159 -4h-570l56 258h1106l-50 -243l-927 -967l153 4h652l-52 -258h-1183z" />
<glyph unicode="[" horiz-adv-x="737" d="M-27 -389l394 1882h507l-47 -225h-237l-299 -1436h237l-47 -221h-508z" />
<glyph unicode="\" horiz-adv-x="686" d="M66 1493h217l399 -1522h-217z" />
<glyph unicode="]" horiz-adv-x="690" d="M-150 -389l50 227h237l301 1434h-239l47 221h510l-396 -1882h-510z" />
<glyph unicode="^" horiz-adv-x="1212" d="M170 672l365 792h247l361 -792h-262l-224 524l-223 -524h-264z" />
<glyph unicode="_" horiz-adv-x="1087" d="M-10 -188h1097v-144h-1097v144z" />
<glyph unicode="`" horiz-adv-x="606" d="M182 1479h295l133 -295h-202z" />
<glyph unicode="a" horiz-adv-x="1157" d="M39 266q0 172 112.5 258t305.5 99q245 17 327 51q21 54 21 94q0 59 -44.5 89t-121.5 30q-79 0 -131.5 -35t-67.5 -102l-276 10q37 166 166.5 246.5t326.5 80.5q103 0 183 -19.5t128 -54t78 -81.5q30 -46 34 -100q1 -14 0 -29q0 -41 -7 -84l-63 -301q-44 -201 -49 -275 q-1 -11 -1 -22q0 -28 6 -59q8 -43 17 -62h-287q-16 53 -16 113q-60 -68 -144.5 -104t-173.5 -36q-148 0 -235.5 83t-87.5 210zM319 297q0 -55 41 -87t105 -32q208 0 266 252l17 72q-43 -22 -246 -49q-86 -12 -134.5 -47t-48.5 -109z" />
<glyph unicode="b" horiz-adv-x="1245" d="M29 0l307 1464h289l-107 -503h2q74 68 143.5 97t161.5 29q181 0 279 -121t98 -325q0 -190 -70 -343t-193 -239t-275 -86q-247 0 -332 197h-2l-37 -170h-264zM410 422q0 -101 57.5 -166.5t148.5 -65.5t161.5 68.5t105.5 169t35 209.5q0 108 -54 172.5t-151 64.5 q-74 0 -134 -41t-95.5 -107.5t-54.5 -144.5t-19 -159z" />
<glyph unicode="c" horiz-adv-x="1142" d="M70 426q0 191 77 342t214.5 235t310.5 84q196 0 318.5 -97.5t131.5 -278.5l-282 -15q-9 174 -183 174q-92 0 -161.5 -64.5t-104.5 -168.5t-35 -229q0 -98 47 -155.5t136 -57.5q81 0 141 53t92 145l285 -22q-68 -193 -205 -295.5t-328 -102.5q-215 0 -334.5 117 t-119.5 336z" />
<glyph unicode="d" horiz-adv-x="1251" d="M70 403q0 99 22 195.5t67.5 185t109.5 156t155 107.5t197 40q104 0 186 -42.5t123 -126.5h2l117 546h288l-307 -1464h-276l26 125h-2q-123 -152 -321 -152q-180 0 -283.5 113.5t-103.5 316.5zM354 428q0 -106 55 -172t148 -66q75 0 136 42.5t97 109.5t55 141.5t19 145.5 q0 108 -57 174.5t-150 66.5q-74 0 -134.5 -44.5t-96 -113t-54 -142.5t-18.5 -142z" />
<glyph unicode="e" horiz-adv-x="1185" d="M72 451q0 126 42 241.5t117 203t186.5 139.5t241.5 52q211 0 335 -120.5t124 -339.5q0 -97 -18 -176h-750q-4 -26 -4 -50q0 -89 50 -145q62 -72 169 -72q140 0 223 148l275 -23q-73 -168 -199 -252t-317 -84q-221 0 -348 131t-127 347zM381 629h467v17q0 109 -48 166 q-52 62 -149 62q-102 0 -171.5 -66t-98.5 -179z" />
<glyph unicode="f" horiz-adv-x="700" d="M72 0l180 858h-166l43 203h166l55 213q26 99 111.5 153t212.5 54q137 0 239 -31l-51 -207q-94 23 -135 23q-42 0 -71 -19.5t-38 -54.5l-34 -131h204l-40 -203h-207l-181 -858h-288z" />
<glyph unicode="g" horiz-adv-x="1243" d="M6 -57l297 -23q0 -66 46.5 -100.5t125.5 -34.5q53 0 95.5 16.5t67.5 42t39.5 48.5t20.5 45q4 14 27 97t29 107h-6q-126 -135 -295 -135q-174 0 -277.5 115t-103.5 317q0 185 68 333.5t187 232t267 83.5q110 0 196 -51t132 -151h2l34 176h275l-225 -1061 q-46 -216 -176.5 -316t-374.5 -100q-90 0 -166.5 19t-140.5 59.5t-102 112t-42 168.5zM356 463q0 -109 52 -175.5t143 -66.5q118 0 208.5 111t90.5 303q0 107 -56 173t-149 66q-87 0 -155 -64t-101 -156.5t-33 -190.5z" />
<glyph unicode="h" horiz-adv-x="1239" d="M29 0l305 1464h289l-109 -524h2q76 69 160.5 108t195.5 39q139 0 216 -74t77 -202q0 -64 -28 -190l-131 -621h-289l131 627q20 98 20 131q0 49 -37 80.5t-94 31.5q-53 0 -100 -21t-79.5 -54.5t-52.5 -63.5t-34 -61q-21 -44 -65 -248l-89 -422h-288z" />
<glyph unicode="i" horiz-adv-x="552" d="M29 0l223 1061h291l-224 -1061h-290zM285 1214l53 250h291l-56 -250h-288z" />
<glyph unicode="j" horiz-adv-x="565" d="M-229 -381l47 236q72 -11 104 -11q90 0 111 95l237 1122h291l-262 -1206q-27 -121 -114.5 -188.5t-235.5 -67.5q-99 0 -178 20zM301 1214l53 250h291l-53 -250h-291z" />
<glyph unicode="k" horiz-adv-x="1140" d="M29 0l307 1464h289l-164 -782h2l395 379h365l-451 -395l250 -666h-303l-160 481l-174 -149l-68 -332h-288z" />
<glyph unicode="l" horiz-adv-x="550" d="M29 0l309 1464h289l-310 -1464h-288z" />
<glyph unicode="m" horiz-adv-x="1843" d="M29 0l221 1061h274l-32 -139h4q140 165 352 165q107 0 175 -48t87 -138q54 80 157 133t208 53q139 -1 219 -75q76 -70 75 -170v-13q-3 -71 -28 -194l-133 -635h-291l139 659q10 45 13 77q1 10 1 21q0 23 -4 45q-6 34 -34 51t-76 17q-100 0 -172.5 -85t-96.5 -199 l-124 -586h-291l137 655q6 32 8.5 51.5t3.5 48t-5 46t-17.5 35t-35 26t-56.5 8.5q-91 0 -163 -73.5t-93 -171.5l-134 -625h-288z" />
<glyph unicode="n" horiz-adv-x="1239" d="M27 0l221 1061h274l-28 -143h2q163 169 372 169q141 0 218 -74t77 -206q0 -47 -30 -197l-129 -610h-289l129 610q7 34 10.5 53t7 51t1.5 50t-9.5 41t-21.5 35.5t-38.5 21t-58.5 8.5q-56 0 -115 -31t-111.5 -101t-72.5 -165l-121 -573h-288z" />
<glyph unicode="o" horiz-adv-x="1232" d="M66 434q0 132 40.5 249.5t116 207.5t191.5 143t258 53q229 0 362 -121.5t133 -342.5q0 -93 -21.5 -183.5t-70 -175.5t-118.5 -149t-174 -103t-230 -39q-223 0 -355 126.5t-132 334.5zM352 436q0 -111 57.5 -177t155.5 -66q95 0 168 65.5t109.5 166t36.5 214.5 q0 106 -56 167.5t-157 61.5q-89 0 -161.5 -58.5t-112.5 -157.5t-40 -216z" />
<glyph unicode="p" horiz-adv-x="1273" d="M-53 -389l305 1450h276l-28 -121l4 -2q129 149 321 149q180 0 282.5 -115t102.5 -323q0 -188 -67 -341.5t-194 -244t-290 -90.5q-103 0 -184.5 43t-124.5 127h-2l-112 -532h-289zM418 436q0 -113 55.5 -179.5t149.5 -66.5q78 0 139 45t95 115t51.5 143.5t17.5 141.5 q0 107 -54.5 173t-148.5 66q-71 0 -130 -37.5t-96.5 -100t-58 -140t-20.5 -160.5z" />
<glyph unicode="q" horiz-adv-x="1251" d="M70 420q0 159 45 288t121 210.5t171 125t199 43.5q250 0 332 -194h2l35 168h266l-303 -1450h-289l101 475h-2q-64 -58 -133.5 -85.5t-163.5 -27.5q-184 0 -282.5 120.5t-98.5 326.5zM352 424q0 -106 54 -171t153 -65q72 0 132.5 43t97 110t56 143.5t19.5 148.5 q0 106 -58.5 171.5t-148.5 65.5q-132 0 -218.5 -128.5t-86.5 -317.5z" />
<glyph unicode="r" horiz-adv-x="804" d="M29 0l221 1061h272l-43 -201h2q60 111 150.5 169t193.5 58q55 0 113 -18l-86 -260q-53 16 -102 16q-131 0 -215 -96.5t-119 -265.5l-99 -463h-288z" />
<glyph unicode="s" horiz-adv-x="1101" d="M12 319l275 23q11 -80 68.5 -124t156.5 -44q91 0 142 35.5t51 85.5q0 37 -20.5 57.5t-57.5 34.5t-138.5 50.5t-144.5 54.5q-99 41 -149 98t-50 158q0 67 28.5 126.5t85 108t150 76.5t212.5 28q415 0 440 -309l-268 -22q-6 64 -58 99.5t-135 35.5q-84 0 -129 -27.5 t-45 -75.5q0 -52 86 -86q36 -14 147 -50.5t123 -41.5q54 -21 94 -48t62.5 -52.5t35.5 -56.5t17 -56.5t4 -56.5q0 -50 -14 -98t-49.5 -97.5t-89.5 -87t-141.5 -61t-198.5 -23.5q-216 0 -341.5 87.5t-148.5 258.5z" />
<glyph unicode="t" horiz-adv-x="718" d="M78 856l45 205h164l49 246l311 98l-72 -344h193l-45 -205h-193l-114 -553q-3 -14 -3 -26q0 -74 99 -74q36 0 98 6l-47 -219q-86 -13 -166 -13q-135 -1 -209 53q-74 53 -73 164q0 49 24 166l105 496h-166z" />
<glyph unicode="u" horiz-adv-x="1251" d="M96 254q0 29 33 199l127 608h289l-129 -627q-23 -122 -23 -133q0 -48 35.5 -79.5t95.5 -31.5q83 0 153 55.5t109 133.5q26 52 45 145l113 537h289l-221 -1061h-273l31 145h-2q-156 -172 -377 -172q-140 0 -217.5 74t-77.5 207z" />
<glyph unicode="v" horiz-adv-x="1101" d="M100 1061h289l88 -735h2l393 735h310l-617 -1061h-289z" />
<glyph unicode="w" horiz-adv-x="1634" d="M100 1061h275l57 -729h2l330 729h276l35 -727h2l336 727h297l-541 -1061h-286l-45 709h-2l-326 -709h-285z" />
<glyph unicode="x" horiz-adv-x="1101" d="M-100 0l491 555l-256 506h309l136 -303l254 303h337l-466 -531l268 -530h-305l-154 324l-274 -324h-340z" />
<glyph unicode="y" horiz-adv-x="1103" d="M-68 -381l37 229q65 -14 109 -14q41 0 72.5 12.5t56 39.5t39.5 51.5t37 66.5l-187 1057h291l96 -787h2l385 787h312l-666 -1188q-32 -59 -58.5 -98t-61.5 -75.5t-74 -56.5t-91.5 -32t-119.5 -12q-77 0 -179 20z" />
<glyph unicode="z" horiz-adv-x="1024" d="M-35 0l43 205l639 635l-141 -2h-367l47 223h861l-41 -193l-650 -645l133 2h439l-49 -225h-914z" />
<glyph unicode="{" horiz-adv-x="739" d="M6 440l45 209q32 0 65 8.5t69 27.5t65 58t41 93l92 393q21 87 78.5 148.5t129 88.5t150.5 27h181l-50 -233h-120q-45 0 -77 -31.5t-44 -93.5q-20 -106 -80 -344q-15 -56 -41 -98.5t-61 -70.5t-64.5 -43.5t-71.5 -31.5v-2q31 -8 63.5 -32t56 -70.5t16.5 -100.5 q-26 -181 -72 -399q-9 -45 10.5 -74.5t63.5 -32.5q29 -2 118 -2l-49 -235l-137 -2q-73 -1 -130.5 15t-90 44t-54 64.5t-23 75.5t4.5 77q69 345 78 436q6 63 -42.5 96t-119.5 35z" />
<glyph unicode="|" horiz-adv-x="518" d="M154 -233v1726h221v-1726h-221z" />
<glyph unicode="}" horiz-adv-x="739" d="M-199 -401l49 235l119 2q40 0 65.5 18t33.5 48q15 57 55 213t47 182q15 56 42 99.5t63 72t66 45t69 31.5v2q-63 21 -107.5 76.5t-30.5 136.5q6 35 37.5 207.5t34.5 203.5q4 36 -18.5 60t-53.5 26q-43 3 -118 3l49 233h92q96 0 156 -8q79 -11 129 -65.5t53 -149.5 q1 -30 -40.5 -243.5t-41.5 -258.5q0 -60 46.5 -89.5t117.5 -29.5l-43 -209q-160 0 -230 -161q-10 -23 -35 -136.5t-55.5 -227t-56.5 -151.5q-27 -40 -54 -65.5t-73 -50.5t-117 -37t-170 -12h-80z" />
<glyph unicode="~" horiz-adv-x="1212" d="M137 655q103 156 277 156q64 0 128.5 -21t188.5 -73q93 -41 146 -41q61 0 115.5 37t111.5 106l41 -241q-48 -66 -124.5 -111t-150.5 -45q-52 0 -103.5 16.5t-127.5 53.5q-141 69 -240 69q-118 0 -221 -143z" />
<glyph unicode="&#xa1;" horiz-adv-x="645" d="M-25 -389l80 383l224 676h151l-72 -688l-77 -371h-306zM221 778l64 297h303l-64 -297h-303z" />
<glyph unicode="&#xa2;" d="M72 428q0 132 35 242.5t93.5 186t136 128t161.5 76.5t172 24h37l96 277l110 -25l-94 -270q137 -34 218 -123t87 -233l-272 -13q-6 121 -96 158l-205 -661q36 0 59 10q119 49 170 188l279 -20q-63 -198 -195.5 -299t-328.5 -101q-24 0 -52 4l-98 -294l-113 24l99 293 q-142 34 -220.5 144t-78.5 284zM350 412q0 -145 90 -189l203 658q-81 -6 -147 -66q-55 -49 -100.5 -156.5t-45.5 -246.5z" />
<glyph unicode="&#xa3;" d="M10 193q243 144 269 309q9 59 12 125h-213l41 198h145q-31 114 -31 197q0 60 16 122t55.5 125.5t97 112.5t149.5 80t205 31q447 0 450 -459l-268 -12q-12 242 -193 242q-110 0 -168.5 -75.5t-58.5 -189.5q0 -68 27 -174h270l-41 -198h-215q0 -47 -4 -72 q-18 -104 -62 -180t-137 -146l2 -4q73 33 160 33q38 0 136 -17.5t141 -17.5q98 0 194 62l86 -232q-127 -82 -305 -82q-59 0 -215.5 37t-218.5 37q-126 0 -268 -80z" />
<glyph unicode="&#xa4;" horiz-adv-x="1236" d="M90 1100l141 147l125 -125q44 32 112 54t148 22q77 0 142.5 -22.5t105.5 -53.5l127 127l148 -147l-125 -123q76 -110 76 -256q0 -145 -76 -258l123 -125l-140 -141l-127 127q-103 -80 -256 -80q-147 0 -258 78l-123 -125l-141 143l123 125q-78 113 -78 254q0 156 76 254z M389 721q0 -100 63 -172t162 -72t161.5 72.5t62.5 173.5q0 99 -62 171.5t-160 72.5q-101 0 -164 -72t-63 -174z" />
<glyph unicode="&#xa5;" d="M29 281l39 192h346l16 78l-2 63h-330l39 193h234l-193 657h311l138 -633h2l379 633h335l-454 -657h235l-41 -193h-327l-27 -63l-20 -78h346l-41 -192h-342l-60 -281h-297l58 281h-344z" />
<glyph unicode="&#xa6;" horiz-adv-x="518" d="M154 -233v677h221v-677h-221zM154 817v676h221v-676h-221z" />
<glyph unicode="&#xa7;" horiz-adv-x="1175" d="M29 -25l262 27q9 -92 58.5 -142t129.5 -50q76 0 118 35t42 92q0 67 -57 118l-332 287q-152 133 -152 285q0 122 74 210.5t207 131.5q-35 53 -49.5 92.5t-14.5 89.5q0 149 127 248q119 94 303 94q185 0 293.5 -90.5t108.5 -265.5l-258 -21q-2 80 -41.5 124t-112.5 44 q-64 0 -103.5 -36t-39.5 -95q0 -45 36 -89.5t130 -123.5l180 -152q91 -77 130.5 -148t39.5 -159q0 -115 -73 -203t-191 -133q74 -95 74 -200q0 -60 -26 -119t-76.5 -111.5t-137.5 -85t-197 -32.5q-194 0 -318 100.5t-134 277.5zM357 693.5q-9 -33.5 7.5 -76.5t63.5 -85 l283 -256q88 23 122.5 81.5t14.5 123t-78 113.5l-283 235q-24 -8 -50 -26t-48.5 -47t-31.5 -62.5z" />
<glyph unicode="&#xa8;" horiz-adv-x="796" d="M195 1184l49 243h258l-49 -243h-258zM606 1184l49 243h258l-49 -243h-258z" />
<glyph unicode="&#xa9;" horiz-adv-x="1572" d="M70 731q0 209 102.5 385t278.5 278.5t385 102.5t385 -102.5t278.5 -278.5t102.5 -385t-102.5 -385t-278.5 -278.5t-385 -102.5t-385 102.5t-278.5 278.5t-102.5 385zM236 731q0 -168 78.5 -308.5t216.5 -222t305 -81.5t305.5 81.5t217.5 222t79 308.5t-79 308.5 t-217.5 222t-305.5 81.5t-305 -81.5t-216.5 -222t-78.5 -308.5zM442 733q0 195 112 318t294 123q139 0 232 -71.5t128 -209.5l-164 -19q-22 71 -71.5 108.5t-120.5 37.5q-105 0 -164 -75.5t-59 -211.5q0 -131 60.5 -210t158.5 -79q77 0 129.5 42.5t69.5 123.5l163 -28 q-30 -136 -126.5 -213.5t-227.5 -77.5q-189 0 -301.5 123.5t-112.5 318.5z" />
<glyph unicode="&#xaa;" horiz-adv-x="731" d="M113 940q0 99 61 162.5t201 73.5q64 4 95.5 7t76 14.5t65.5 29.5l6 24q9 37 -19 58.5t-79 21.5q-48 0 -84 -21t-51 -61l-192 15q7 28 18.5 53.5t37 56t60 52t91.5 36.5t128 15q161 0 235.5 -65t51.5 -167l-80 -375q-5 -25 1.5 -54t19.5 -44h-205q-12 16 -12 55 q-88 -71 -199 -71q-107 0 -167 51t-60 133zM315 961q0 -31 23.5 -50t62.5 -18q71 3 114 49.5t65 142.5q-50 -27 -158 -38q-107 -13 -107 -86z" />
<glyph unicode="&#xab;" horiz-adv-x="1044" d="M137 500l41 147l367 289l78 -131l-265 -268l146 -310l-123 -110zM571 500l41 147l367 289l78 -131l-264 -268l145 -310l-123 -110z" />
<glyph unicode="&#xac;" horiz-adv-x="1212" d="M133 715v237h1028v-661h-237v424h-791z" />
<glyph unicode="&#xad;" horiz-adv-x="757" d="M68 412l55 264h586l-56 -264h-585z" />
<glyph unicode="&#xae;" horiz-adv-x="1572" d="M70 731q0 209 102.5 385t278.5 278.5t385 102.5t385 -102.5t278.5 -278.5t102.5 -385t-102.5 -385t-278.5 -278.5t-385 -102.5t-385 102.5t-278.5 278.5t-102.5 385zM236 731q0 -168 78.5 -308.5t216.5 -222t305 -81.5t305.5 81.5t217.5 222t79 308.5t-79 308.5 t-217.5 222t-305.5 81.5t-305 -81.5t-216.5 -222t-78.5 -308.5zM512 311v836h377q117 0 198.5 -60t81.5 -180q0 -100 -60.5 -159t-160.5 -70q53 -29 88 -98q32 -65 82.5 -148t85.5 -121h-196q-39 46 -74 129q-55 130 -87 173q-38 49 -75 49h-92v-351h-168zM680 793h164 q62 0 106.5 27t44.5 89q0 48 -35.5 77.5t-115.5 29.5h-164v-223z" />
<glyph unicode="&#xaf;" horiz-adv-x="1167" d="M420 1217l39 178h649l-39 -178h-649z" />
<glyph unicode="&#xb0;" horiz-adv-x="819" d="M197 1165q0 129 91 218.5t220 89.5t220 -89.5t91 -218.5t-91 -219t-220 -90t-220 90t-91 219zM346 1165q0 -73 47.5 -119.5t114.5 -46.5q65 0 112.5 46.5t47.5 119.5t-47.5 119.5t-112.5 46.5q-67 0 -114.5 -46.5t-47.5 -119.5z" />
<glyph unicode="&#xb1;" horiz-adv-x="1175" d="M115 0v238h1030v-238h-1030zM115 643v242h395v323h238v-323h397v-242h-397v-324h-238v324h-395z" />
<glyph unicode="&#xb2;" horiz-adv-x="888" d="M100 643q8 103 68 182q32 43 89.5 87t156.5 108q9 6 31 20t33.5 21.5t32 21t32 22.5t27.5 22.5t25.5 24.5t18.5 24t13 25.5t4 25.5q0 45 -28.5 69.5t-78.5 24.5q-118 0 -137 -145l-199 10q19 140 107 213.5t237 73.5q136 0 216.5 -63t80.5 -177q0 -58 -28 -110.5t-79 -96 t-90.5 -69.5t-94.5 -56q-6 -4 -36 -20t-43.5 -24.5t-34 -24t-32.5 -29.5h369l-39 -160h-621z" />
<glyph unicode="&#xb3;" horiz-adv-x="886" d="M96 905l197 8q0 -61 34.5 -94t90.5 -33q68 0 108 35.5t37 87.5q-3 41 -33 64.5t-79 23.5q-35 0 -58 -4l31 148h45q65 0 106 24t41 74q0 34 -26.5 57t-73.5 23q-55 0 -88.5 -29t-50.5 -92l-187 16q13 74 50.5 128t87.5 80.5t98.5 38.5t97.5 12q128 0 208.5 -57.5 t80.5 -162.5q0 -49 -24 -91t-64 -64q-51 -27 -59 -29v-4q30 -10 57 -37q47 -47 47 -123q0 -35 -9.5 -70t-35 -73.5t-64 -67.5t-102.5 -48t-145 -19q-135 0 -224.5 72.5t-93.5 205.5z" />
<glyph unicode="&#xb4;" horiz-adv-x="757" d="M418 1184l194 295h308l-306 -295h-196z" />
<glyph unicode="&#xb6;" horiz-adv-x="1183" d="M123 1028q0 64 15.5 123.5t53 117.5t94.5 100.5t147 68.5t202 26h360l265 -131l-89 -151l-163 -1571h-217l178 1640h-185l-180 -1640h-219l119 1071q-179 1 -280 98.5t-101 247.5z" />
<glyph unicode="&#xb7;" horiz-adv-x="569" d="M123 463l61 295h305l-63 -295h-303z" />
<glyph unicode="&#xb8;" horiz-adv-x="606" d="M14 -412l45 109q28 -12 121 -12q86 0 127 25t41 61q0 59 -96 63l-121 4l92 162h115l-47 -66h61q84 0 132 -41t48 -108q0 -99 -96 -159t-248 -60q-110 0 -174 22z" />
<glyph unicode="&#xb9;" horiz-adv-x="890" d="M231 1130l37 154q80 5 184 62t140 118h147l-192 -821h-205l127 541q-104 -51 -238 -54z" />
<glyph unicode="&#xba;" horiz-adv-x="739" d="M111 1051q0 75 26 149t73.5 136.5t125.5 101.5t172 39q150 0 238 -78t88 -217q0 -116 -49.5 -213t-142.5 -156t-210 -59q-150 0 -235.5 79t-85.5 218zM317 1038q0 -53 32.5 -88t86.5 -35q45 0 83 28.5t60.5 71.5t35 89.5t12.5 87.5q0 58 -31 90.5t-90 32.5 q-79 0 -134 -86.5t-55 -190.5z" />
<glyph unicode="&#xbb;" horiz-adv-x="1044" d="M37 135l29 197l245 221l-147 299l123 111l243 -381l-67 -150zM473 135l29 197l243 221l-147 299l123 111l244 -381l-68 -150z" />
<glyph unicode="&#xbc;" horiz-adv-x="1763" d="M238 1130l36 154q80 5 184 62t140 118h147l-192 -821h-205l127 541q-104 -51 -237 -54zM311 -53l1094 1534h174l-1092 -1534h-176zM969 164l39 160l503 483h193l-117 -492h113l-35 -151h-117l-39 -164h-190l39 164h-389zM1186 315h211l65 267h-4z" />
<glyph unicode="&#xbd;" horiz-adv-x="1763" d="M238 1130l36 154q80 5 184 62t140 118h147l-192 -821h-205l127 541q-104 -51 -237 -54zM293 -53l1093 1534h175l-1092 -1534h-176zM1053 0q8 104 67 182q32 43 89.5 87t156.5 108q9 6 31 20t33.5 21.5t32 21t32 22.5t27.5 22.5t25.5 24.5t18.5 24t13 25.5t4 25.5 q0 45 -28 69.5t-78 24.5q-119 0 -138 -146l-198 11q19 140 107 213t237 73q136 0 216.5 -62.5t80.5 -176.5q0 -58 -28 -110.5t-79.5 -96t-90.5 -69t-95 -56.5q-6 -4 -36 -20t-43.5 -24.5t-34 -24t-32.5 -29.5h369l-39 -160h-620z" />
<glyph unicode="&#xbe;" horiz-adv-x="1763" d="M74 905l196 8q0 -61 34.5 -94t90.5 -33q68 0 108.5 35.5t37.5 87.5q-3 41 -33 64.5t-80 23.5q-34 0 -57 -4l30 148h45q65 0 106.5 24t41.5 74q0 34 -26.5 57t-73.5 23q-56 0 -89.5 -29t-50.5 -92l-186 16q13 74 50.5 128t87.5 80.5t98.5 38.5t97.5 12q128 0 208.5 -57.5 t80.5 -162.5q0 -49 -24.5 -91t-64.5 -64q-51 -27 -59 -29v-4q30 -10 57 -37q48 -48 48 -123q0 -44 -17 -89t-55 -89t-112 -72t-173 -28q-135 0 -224 72.5t-93 205.5zM322 -53l1095 1534h174l-1093 -1534h-176zM969 164l39 160l503 483h191l-115 -492h113l-35 -151h-117 l-39 -164h-190l39 164h-389zM1186 315h209l65 265q0 2 -2 2z" />
<glyph unicode="&#xbf;" horiz-adv-x="1214" d="M-2 -45q0 61 20.5 117.5t49 97t74.5 83t81.5 67.5t85.5 57q138 89 189 164q30 44 43 127h264q-19 -120 -64 -201q-39 -72 -132.5 -161t-198.5 -156q-62 -41 -93.5 -86t-31.5 -105q0 -70 51 -111t137 -41q108 0 175 67t89 187l277 -22q-32 -217 -184 -337t-377 -120 q-203 0 -329 101.5t-126 271.5zM541 780l63 295h303l-61 -295h-305z" />
<glyph unicode="&#xc0;" horiz-adv-x="1441" d="M-90 0l846 1464h331l242 -1464h-303l-47 324h-565l-181 -324h-323zM530 565h416l-80 586h-2zM625 1886h295l133 -295h-203z" />
<glyph unicode="&#xc1;" horiz-adv-x="1441" d="M-90 0l846 1464h331l242 -1464h-303l-47 324h-565l-181 -324h-323zM530 565h416l-80 586h-2zM836 1591l194 295h307l-305 -295h-196z" />
<glyph unicode="&#xc2;" horiz-adv-x="1441" d="M-90 0l846 1464h331l242 -1464h-303l-47 324h-565l-181 -324h-323zM530 565h416l-80 586h-2zM580 1591l288 297h269l147 -297h-207l-90 174l-178 -174h-229z" />
<glyph unicode="&#xc3;" horiz-adv-x="1441" d="M-90 0l846 1464h331l242 -1464h-303l-47 324h-565l-181 -324h-323zM530 565h416l-80 586h-2zM586 1593q28 122 80 184t147 62q38 0 144.5 -38t136.5 -38q33 0 52 18.5t28 57.5h131q-50 -237 -215 -237q-47 0 -156.5 37.5t-134.5 37.5q-35 0 -55.5 -20t-32.5 -64h-125z " />
<glyph unicode="&#xc4;" horiz-adv-x="1441" d="M-90 0l846 1464h331l242 -1464h-303l-47 324h-565l-181 -324h-323zM530 565h416l-80 586h-2zM604 1595l49 244h258l-49 -244h-258zM1016 1595l49 244h258l-49 -244h-258z" />
<glyph unicode="&#xc5;" horiz-adv-x="1441" d="M-90 0l846 1464h331l242 -1464h-303l-47 324h-565l-181 -324h-323zM530 565h416l-80 586h-2zM735 1698q0 111 77.5 189.5t201.5 78.5q77 0 129.5 -49.5t52.5 -122.5q0 -117 -80.5 -192.5t-197.5 -75.5q-77 0 -130 50t-53 122zM858 1718q0 -38 21.5 -61t60.5 -23 q52 0 93.5 41t41.5 97q0 39 -22.5 62.5t-61.5 23.5q-53 0 -93 -41.5t-40 -98.5z" />
<glyph unicode="&#xc6;" horiz-adv-x="2029" d="M-125 0l938 1464h1317l-53 -258h-697l-69 -323h661l-53 -248h-659l-80 -377h733l-53 -258h-1037l72 342h-469l-217 -342h-334zM571 584h375l131 622h-110z" />
<glyph unicode="&#xc7;" horiz-adv-x="1497" d="M135 608q0 190 60 355t164 281t250 182.5t313 66.5q251 0 406.5 -134t164.5 -374l-305 -14q-12 130 -81 194t-187 64q-75 0 -142 -25.5t-112.5 -63.5t-83 -88.5t-58.5 -93.5t-35 -86q-18 -55 -28.5 -119.5t-13 -138.5t14 -140.5t49 -121.5t96.5 -88t151 -33 q124 0 220.5 81t131.5 214l311 -22q-178 -535 -676 -535q-72 0 -124 8l-31 -43h61q84 0 132 -41t48 -108q0 -99 -96 -159t-248 -60q-110 0 -174 22l45 109q28 -12 121 -12q86 0 127 25t41 61q0 59 -96 63l-121 4l92 162q-186 56 -286.5 211.5t-100.5 396.5z" />
<glyph unicode="&#xc8;" horiz-adv-x="1366" d="M39 0l305 1464h1102l-53 -258h-789l-67 -321h745l-51 -248h-748l-84 -379h830l-53 -258h-1137zM629 1886h295l133 -295h-203z" />
<glyph unicode="&#xc9;" horiz-adv-x="1366" d="M39 0l305 1464h1102l-53 -258h-789l-67 -321h745l-51 -248h-748l-84 -379h830l-53 -258h-1137zM791 1591l194 295h307l-305 -295h-196z" />
<glyph unicode="&#xca;" horiz-adv-x="1366" d="M39 0l305 1464h1102l-53 -258h-789l-67 -321h745l-51 -248h-748l-84 -379h830l-53 -258h-1137zM575 1591l289 297h269l147 -297h-207l-90 174l-178 -174h-230z" />
<glyph unicode="&#xcb;" horiz-adv-x="1366" d="M39 0l305 1464h1102l-53 -258h-789l-67 -321h745l-51 -248h-748l-84 -379h830l-53 -258h-1137zM598 1595l49 244h258l-49 -244h-258zM1010 1595l49 244h258l-49 -244h-258z" />
<glyph unicode="&#xcc;" horiz-adv-x="587" d="M33 0l307 1464h313l-309 -1464h-311zM209 1886h295l133 -295h-203z" />
<glyph unicode="&#xcd;" horiz-adv-x="587" d="M33 0l307 1464h313l-309 -1464h-311zM383 1591l195 295h307l-305 -295h-197z" />
<glyph unicode="&#xce;" horiz-adv-x="587" d="M33 0l307 1464h313l-309 -1464h-311zM156 1591l288 297h269l147 -297h-207l-90 174l-178 -174h-229z" />
<glyph unicode="&#xcf;" horiz-adv-x="587" d="M33 0l307 1464h313l-309 -1464h-311zM186 1595l50 244h258l-50 -244h-258zM598 1595l49 244h258l-49 -244h-258z" />
<glyph unicode="&#xd0;" horiz-adv-x="1542" d="M37 627l49 233h162l127 604h393q107 0 156 -2q116 -2 211 -33t160.5 -84t110 -126.5t65 -159.5t20.5 -185q0 -399 -234 -645q-63 -70 -138.5 -117t-159.5 -70.5t-161 -32.5t-169 -9h-563l131 627h-160zM432 256h137q146 0 229 14t154 66q94 67 161 200.5t67 315.5 q0 103 -25.5 175t-74 110.5t-106.5 54.5t-134 16h-207l-74 -348h328l-49 -233h-330z" />
<glyph unicode="&#xd1;" horiz-adv-x="1497" d="M41 0l307 1464h307l398 -1011h2l207 1011h288l-309 -1464h-301l-397 1006h-2l-209 -1006h-291zM612 1593q28 122 80.5 184t147.5 62q38 0 144 -38t136 -38q33 0 52 18.5t28 57.5h131q-50 -237 -215 -237q-47 0 -156.5 37.5t-134.5 37.5q-35 0 -55.5 -20t-32.5 -64h-125z " />
<glyph unicode="&#xd2;" horiz-adv-x="1593" d="M109 594q0 182 57.5 345.5t160.5 286.5t256.5 195t334.5 72q100 0 190 -21.5t171 -69.5t139.5 -118.5t93 -176t34.5 -235.5q0 -192 -62.5 -360t-170 -287t-258.5 -187.5t-322 -68.5q-132 0 -239.5 37t-178 98t-118 143.5t-68 169t-20.5 177.5zM412 594q0 -34 6 -70.5 t19.5 -79.5t39.5 -81t61.5 -69.5t91 -50t122.5 -18.5q134 0 246.5 85.5t176.5 231.5t64 318q0 169 -87.5 273t-244.5 104q-102 0 -187.5 -42.5t-141 -110.5t-94 -154.5t-55.5 -171t-17 -164.5zM647 1886h295l133 -295h-203z" />
<glyph unicode="&#xd3;" horiz-adv-x="1593" d="M109 594q0 182 57.5 345.5t160.5 286.5t256.5 195t334.5 72q100 0 190 -21.5t171 -69.5t139.5 -118.5t93 -176t34.5 -235.5q0 -192 -62.5 -360t-170 -287t-258.5 -187.5t-322 -68.5q-132 0 -239.5 37t-178 98t-118 143.5t-68 169t-20.5 177.5zM412 594q0 -34 6 -70.5 t19.5 -79.5t39.5 -81t61.5 -69.5t91 -50t122.5 -18.5q134 0 246.5 85.5t176.5 231.5t64 318q0 169 -87.5 273t-244.5 104q-102 0 -187.5 -42.5t-141 -110.5t-94 -154.5t-55.5 -171t-17 -164.5zM854 1591l195 295h307l-305 -295h-197z" />
<glyph unicode="&#xd4;" horiz-adv-x="1593" d="M109 594q0 182 57.5 345.5t160.5 286.5t256.5 195t334.5 72q100 0 190 -21.5t171 -69.5t139.5 -118.5t93 -176t34.5 -235.5q0 -192 -62.5 -360t-170 -287t-258.5 -187.5t-322 -68.5q-132 0 -239.5 37t-178 98t-118 143.5t-68 169t-20.5 177.5zM412 594q0 -34 6 -70.5 t19.5 -79.5t39.5 -81t61.5 -69.5t91 -50t122.5 -18.5q134 0 246.5 85.5t176.5 231.5t64 318q0 169 -87.5 273t-244.5 104q-102 0 -187.5 -42.5t-141 -110.5t-94 -154.5t-55.5 -171t-17 -164.5zM618 1591l289 297h269l147 -297h-207l-90 174l-178 -174h-230z" />
<glyph unicode="&#xd5;" horiz-adv-x="1593" d="M109 594q0 182 57.5 345.5t160.5 286.5t256.5 195t334.5 72q100 0 190 -21.5t171 -69.5t139.5 -118.5t93 -176t34.5 -235.5q0 -192 -62.5 -360t-170 -287t-258.5 -187.5t-322 -68.5q-132 0 -239.5 37t-178 98t-118 143.5t-68 169t-20.5 177.5zM412 594q0 -34 6 -70.5 t19.5 -79.5t39.5 -81t61.5 -69.5t91 -50t122.5 -18.5q134 0 246.5 85.5t176.5 231.5t64 318q0 169 -87.5 273t-244.5 104q-102 0 -187.5 -42.5t-141 -110.5t-94 -154.5t-55.5 -171t-17 -164.5zM655 1593q28 122 80.5 184t147.5 62q38 0 144 -38t136 -38q33 0 52 18.5 t28 57.5h131q-50 -237 -215 -237q-47 0 -156.5 37.5t-134.5 37.5q-35 0 -55.5 -20t-32.5 -64h-125z" />
<glyph unicode="&#xd6;" horiz-adv-x="1593" d="M109 594q0 182 57.5 345.5t160.5 286.5t256.5 195t334.5 72q100 0 190 -21.5t171 -69.5t139.5 -118.5t93 -176t34.5 -235.5q0 -192 -62.5 -360t-170 -287t-258.5 -187.5t-322 -68.5q-132 0 -239.5 37t-178 98t-118 143.5t-68 169t-20.5 177.5zM412 594q0 -34 6 -70.5 t19.5 -79.5t39.5 -81t61.5 -69.5t91 -50t122.5 -18.5q134 0 246.5 85.5t176.5 231.5t64 318q0 169 -87.5 273t-244.5 104q-102 0 -187.5 -42.5t-141 -110.5t-94 -154.5t-55.5 -171t-17 -164.5zM655 1595l50 244h258l-50 -244h-258zM1067 1595l49 244h258l-49 -244h-258z" />
<glyph unicode="&#xd7;" horiz-adv-x="1212" d="M121 305l315 316l-315 315l172 170l313 -315l316 315l168 -168l-314 -315l316 -316l-170 -172l-318 318l-313 -316z" />
<glyph unicode="&#xd8;" horiz-adv-x="1593" d="M63 12l179 189q-117 164 -117 393q0 182 57.5 345.5t160.5 286.5t256.5 195t334.5 72q251 0 412 -125l167 176l113 -106l-172 -181q109 -151 109 -385q0 -192 -62.5 -360t-170 -287t-258.5 -187.5t-322 -68.5q-247 0 -404 125l-176 -184zM432 596q0 -82 31 -162l680 719 q-86 80 -219 80q-101 0 -186.5 -44t-140.5 -112.5t-93.5 -154.5t-55 -168.5t-16.5 -157.5zM547 305q86 -76 221 -76q99 0 189.5 52.5t154.5 139t101.5 201t37.5 236.5q0 88 -24 162z" />
<glyph unicode="&#xd9;" horiz-adv-x="1497" d="M131 412q0 58 37 243l170 809h311l-172 -821q-37 -181 -37 -215q0 -80 64 -138.5t196 -58.5q120 0 213.5 68t116.5 178l209 987h313l-200 -950q-31 -144 -93 -250t-149.5 -169.5t-193 -93.5t-232.5 -30q-255 0 -404 120t-149 321zM670 1886h295l133 -295h-203z" />
<glyph unicode="&#xda;" horiz-adv-x="1497" d="M131 412q0 58 37 243l170 809h311l-172 -821q-37 -181 -37 -215q0 -80 64 -138.5t196 -58.5q120 0 213.5 68t116.5 178l209 987h313l-200 -950q-31 -144 -93 -250t-149.5 -169.5t-193 -93.5t-232.5 -30q-255 0 -404 120t-149 321zM864 1591l195 295h307l-305 -295h-197z " />
<glyph unicode="&#xdb;" horiz-adv-x="1497" d="M131 412q0 58 37 243l170 809h311l-172 -821q-37 -181 -37 -215q0 -80 64 -138.5t196 -58.5q120 0 213.5 68t116.5 178l209 987h313l-200 -950q-31 -144 -93 -250t-149.5 -169.5t-193 -93.5t-232.5 -30q-255 0 -404 120t-149 321zM610 1591l289 297h268l148 -297h-207 l-90 174l-178 -174h-230z" />
<glyph unicode="&#xdc;" horiz-adv-x="1497" d="M131 412q0 58 37 243l170 809h311l-172 -821q-37 -181 -37 -215q0 -80 64 -138.5t196 -58.5q120 0 213.5 68t116.5 178l209 987h313l-200 -950q-31 -144 -93 -250t-149.5 -169.5t-193 -93.5t-232.5 -30q-255 0 -404 120t-149 321zM649 1595l49 244h258l-49 -244h-258z M1061 1595l49 244h258l-49 -244h-258z" />
<glyph unicode="&#xdd;" horiz-adv-x="1347" d="M180 1464h324l246 -626l442 626h364l-692 -917l-112 -547h-314l119 569zM760 1591l194 295h308l-306 -295h-196z" />
<glyph unicode="&#xde;" horiz-adv-x="1343" d="M41 0l305 1464h313l-51 -239h281q68 0 127.5 -8t127 -33.5t114.5 -67.5t78.5 -116t31.5 -173q0 -135 -66.5 -258t-191.5 -192q-27 -15 -59.5 -27t-59.5 -20t-68 -13.5t-64.5 -8t-72 -4t-66.5 -1.5h-72.5h-67.5h-164l-64 -303h-311zM469 551l336 2q70 5 122 32t79.5 67 t40 79.5t12.5 79.5q0 44 -14.5 75t-36 48.5t-57 27.5t-68 12.5t-78.5 2.5h-248z" />
<glyph unicode="&#xdf;" horiz-adv-x="1239" d="M29 0l223 1055q50 235 184 336.5t338 101.5q177 0 291.5 -82t114.5 -231q0 -46 -13 -92.5t-42.5 -96.5t-85.5 -97t-134 -81q28 -14 66 -49.5t79 -88.5t69 -129t28 -155q0 -82 -26.5 -155.5t-77 -133t-132.5 -94.5t-184 -35q-124 0 -198 64.5t-91 155.5l156 65 q14 -21 42.5 -36t59.5 -15q83 0 126.5 53.5t43.5 149.5q0 106 -80 193t-165 110l38 225q91 22 156.5 83t65.5 130q0 51 -36.5 84t-88.5 33q-72 0 -129 -47t-80 -150l-230 -1071h-288z" />
<glyph unicode="&#xe0;" horiz-adv-x="1157" d="M39 266q0 172 112.5 258t305.5 99q245 17 327 51q21 54 21 94q0 59 -44.5 89t-121.5 30q-79 0 -131.5 -35t-67.5 -102l-276 10q37 166 166.5 246.5t326.5 80.5q103 0 183 -19.5t128 -54t78 -81.5t33.5 -100.5t-6.5 -112.5l-63 -301q-44 -201 -49 -275q-3 -38 4.5 -81 t17.5 -62h-287q-16 53 -16 113q-60 -68 -144.5 -104t-173.5 -36q-148 0 -235.5 83t-87.5 210zM319 297q0 -55 41 -87t105 -32q208 0 266 252l17 72q-43 -22 -246 -49q-86 -12 -134.5 -47t-48.5 -109zM401 1479h295l133 -295h-202z" />
<glyph unicode="&#xe1;" horiz-adv-x="1157" d="M39 266q0 172 112.5 258t305.5 99q245 17 327 51q21 54 21 94q0 59 -44.5 89t-121.5 30q-79 0 -131.5 -35t-67.5 -102l-276 10q37 166 166.5 246.5t326.5 80.5q103 0 183 -19.5t128 -54t78 -81.5t33.5 -100.5t-6.5 -112.5l-63 -301q-44 -201 -49 -275q-3 -38 4.5 -81 t17.5 -62h-287q-16 53 -16 113q-60 -68 -144.5 -104t-173.5 -36q-148 0 -235.5 83t-87.5 210zM319 297q0 -55 41 -87t105 -32q208 0 266 252l17 72q-43 -22 -246 -49q-86 -12 -134.5 -47t-48.5 -109zM575 1184l195 295h307l-305 -295h-197z" />
<glyph unicode="&#xe2;" horiz-adv-x="1157" d="M39 266q0 172 112.5 258t305.5 99q245 17 327 51q21 54 21 94q0 59 -44.5 89t-121.5 30q-79 0 -131.5 -35t-67.5 -102l-276 10q37 166 166.5 246.5t326.5 80.5q103 0 183 -19.5t128 -54t78 -81.5t33.5 -100.5t-6.5 -112.5l-63 -301q-44 -201 -49 -275q-3 -38 4.5 -81 t17.5 -62h-287q-16 53 -16 113q-60 -68 -144.5 -104t-173.5 -36q-148 0 -235.5 83t-87.5 210zM319 297q0 -55 41 -87t105 -32q208 0 266 252l17 72q-43 -22 -246 -49q-86 -12 -134.5 -47t-48.5 -109zM358 1184l289 297h268l148 -297h-207l-90 174l-178 -174h-230z" />
<glyph unicode="&#xe3;" horiz-adv-x="1157" d="M39 266q0 172 112.5 258t305.5 99q245 17 327 51q21 54 21 94q0 59 -44.5 89t-121.5 30q-79 0 -131.5 -35t-67.5 -102l-276 10q37 166 166.5 246.5t326.5 80.5q103 0 183 -19.5t128 -54t78 -81.5t33.5 -100.5t-6.5 -112.5l-63 -301q-44 -201 -49 -275q-3 -38 4.5 -81 t17.5 -62h-287q-16 53 -16 113q-60 -68 -144.5 -104t-173.5 -36q-148 0 -235.5 83t-87.5 210zM319 297q0 -55 41 -87t105 -32q208 0 266 252l17 72q-43 -22 -246 -49q-86 -12 -134.5 -47t-48.5 -109zM367 1192q28 122 80 184t147 62q38 0 144 -38t136 -38q33 0 52 18.5 t28 57.5h131q-50 -238 -215 -238q-47 0 -156 38t-134 38q-35 0 -55.5 -20t-32.5 -64h-125z" />
<glyph unicode="&#xe4;" horiz-adv-x="1157" d="M39 266q0 172 112.5 258t305.5 99q245 17 327 51q21 54 21 94q0 59 -44.5 89t-121.5 30q-79 0 -131.5 -35t-67.5 -102l-276 10q37 166 166.5 246.5t326.5 80.5q103 0 183 -19.5t128 -54t78 -81.5t33.5 -100.5t-6.5 -112.5l-63 -301q-44 -201 -49 -275q-3 -38 4.5 -81 t17.5 -62h-287q-16 53 -16 113q-60 -68 -144.5 -104t-173.5 -36q-148 0 -235.5 83t-87.5 210zM319 297q0 -55 41 -87t105 -32q208 0 266 252l17 72q-43 -22 -246 -49q-86 -12 -134.5 -47t-48.5 -109zM385 1184l49 243h258l-49 -243h-258zM797 1184l49 243h258l-49 -243h-258 z" />
<glyph unicode="&#xe5;" horiz-adv-x="1157" d="M39 266q0 172 112.5 258t305.5 99q245 17 327 51q21 54 21 94q0 59 -44.5 89t-121.5 30q-79 0 -131.5 -35t-67.5 -102l-276 10q37 166 166.5 246.5t326.5 80.5q103 0 183 -19.5t128 -54t78 -81.5t33.5 -100.5t-6.5 -112.5l-63 -301q-44 -201 -49 -275q-3 -38 4.5 -81 t17.5 -62h-287q-16 53 -16 113q-60 -68 -144.5 -104t-173.5 -36q-148 0 -235.5 83t-87.5 210zM319 297q0 -55 41 -87t105 -32q208 0 266 252l17 72q-43 -22 -246 -49q-86 -12 -134.5 -47t-48.5 -109zM514 1317q0 111 78 190.5t203 79.5q78 0 131 -49.5t53 -124.5 q0 -118 -81 -194t-200 -76q-78 0 -131 50t-53 124zM637 1337q0 -38 22.5 -62t61.5 -24q52 0 94.5 42t42.5 98q0 39 -23.5 63.5t-62.5 24.5q-53 0 -94 -42.5t-41 -99.5z" />
<glyph unicode="&#xe6;" horiz-adv-x="1839" d="M35 266q0 156 98 244q106 95 320 113q253 20 327 51q21 54 21 94q0 59 -44.5 89t-121.5 30q-79 0 -131.5 -35t-67.5 -102l-276 10q37 166 166.5 246.5t326.5 80.5q252 0 346 -137q131 137 347 137q209 0 326.5 -119.5t117.5 -340.5q0 -97 -18 -176h-750 q-17 -122 45.5 -194.5t169.5 -72.5q140 0 223 148l275 -23q-73 -168 -199 -252t-317 -84q-277 0 -390 222q-154 -222 -471 -222q-148 0 -235.5 83t-87.5 210zM309 297q0 -55 42.5 -87t109.5 -32q200 0 278 252l23 74q-97 -32 -264 -51q-189 -21 -189 -156zM1053 629h469 q9 120 -45 182.5t-152 62.5q-102 0 -173 -66t-99 -179z" />
<glyph unicode="&#xe7;" d="M72 426q0 191 77 342t214.5 235t310.5 84q196 0 318.5 -97.5t131.5 -278.5l-282 -15q-9 174 -183 174q-92 0 -161.5 -64.5t-104.5 -168.5t-35 -229q0 -98 47 -155.5t136 -57.5q81 0 141 53t92 145l285 -22q-68 -193 -205 -295.5t-328 -102.5q-45 0 -65 2h-2l-29 -41h62 q84 0 132 -41t48 -108q0 -99 -96 -159t-248 -60q-110 0 -174 22l45 109q28 -12 120 -12q86 0 127 25t41 61q0 59 -96 63l-121 4l88 156q-137 40 -211.5 150t-74.5 282z" />
<glyph unicode="&#xe8;" horiz-adv-x="1157" d="M61 451q0 170 71.5 314t207.5 233t309 89q211 0 335 -120.5t124 -339.5q0 -97 -18 -176h-750q-17 -122 45.5 -194.5t169.5 -72.5q140 0 223 148l275 -23q-73 -168 -199 -252t-317 -84q-221 0 -348.5 131.5t-127.5 346.5zM371 629h467q4 121 -48.5 183t-148.5 62 q-102 0 -171.5 -66t-98.5 -179zM385 1479h295l133 -295h-203z" />
<glyph unicode="&#xe9;" horiz-adv-x="1157" d="M61 451q0 170 71.5 314t207.5 233t309 89q211 0 335 -120.5t124 -339.5q0 -97 -18 -176h-750q-17 -122 45.5 -194.5t169.5 -72.5q140 0 223 148l275 -23q-73 -168 -199 -252t-317 -84q-221 0 -348.5 131.5t-127.5 346.5zM371 629h467q4 121 -48.5 183t-148.5 62 q-102 0 -171.5 -66t-98.5 -179zM598 1184l195 295h307l-305 -295h-197z" />
<glyph unicode="&#xea;" horiz-adv-x="1157" d="M61 451q0 170 71.5 314t207.5 233t309 89q211 0 335 -120.5t124 -339.5q0 -97 -18 -176h-750q-17 -122 45.5 -194.5t169.5 -72.5q140 0 223 148l275 -23q-73 -168 -199 -252t-317 -84q-221 0 -348.5 131.5t-127.5 346.5zM332 1184l289 297h268l147 -297h-207l-90 174 l-178 -174h-229zM371 629h467q4 121 -48.5 183t-148.5 62q-102 0 -171.5 -66t-98.5 -179z" />
<glyph unicode="&#xeb;" horiz-adv-x="1157" d="M61 451q0 170 71.5 314t207.5 233t309 89q211 0 335 -120.5t124 -339.5q0 -97 -18 -176h-750q-17 -122 45.5 -194.5t169.5 -72.5q140 0 223 148l275 -23q-73 -168 -199 -252t-317 -84q-221 0 -348.5 131.5t-127.5 346.5zM371 629h467q4 121 -48.5 183t-148.5 62 q-102 0 -171.5 -66t-98.5 -179zM371 1184l49 243h258l-49 -243h-258zM782 1184l49 243h259l-50 -243h-258z" />
<glyph unicode="&#xec;" horiz-adv-x="550" d="M29 0l223 1061h291l-224 -1061h-290zM104 1479h295l133 -295h-202z" />
<glyph unicode="&#xed;" horiz-adv-x="550" d="M29 0l223 1061h291l-224 -1061h-290zM287 1184l194 295h307l-305 -295h-196z" />
<glyph unicode="&#xee;" horiz-adv-x="550" d="M29 0l223 1061h291l-224 -1061h-290zM51 1184l289 297h268l148 -297h-207l-90 174l-178 -174h-230z" />
<glyph unicode="&#xef;" horiz-adv-x="550" d="M29 0l223 1061h291l-224 -1061h-290zM84 1184l49 243h258l-49 -243h-258zM496 1184l49 243h258l-49 -243h-258z" />
<glyph unicode="&#xf0;" horiz-adv-x="1261" d="M70 436q0 118 41.5 228.5t114.5 196t183.5 137t239.5 51.5q160 0 254 -109l4 4q-21 146 -110 285l-244 -103l-84 113l240 102q-21 24 -44.5 44t-60 47.5t-55.5 42.5q6 2 101.5 23.5t140.5 33.5q67 -51 118 -107l226 99l82 -111l-218 -96q91 -139 135 -283.5t44 -331.5 q0 -57 -7.5 -118.5t-27.5 -133.5t-50 -138.5t-79 -129t-110.5 -108.5t-148 -73.5t-188.5 -27.5q-127 0 -224.5 36.5t-156 101t-87.5 146.5t-29 179zM356 424q0 -97 55.5 -164t157.5 -67q80 0 143 41t99.5 106t55 137.5t18.5 143.5q0 103 -59 161t-154 58q-76 0 -139 -42.5 t-100 -107t-57 -134.5t-20 -132z" />
<glyph unicode="&#xf1;" horiz-adv-x="1251" d="M31 0l221 1061h274l-28 -143h2q163 169 372 169q141 0 218 -74t77 -206q0 -47 -30 -197l-129 -610h-289l129 610q7 34 10.5 53t7 51t1.5 50t-9.5 41t-21.5 35.5t-38.5 21t-58.5 8.5q-56 0 -115 -31t-111.5 -101t-72.5 -165l-121 -573h-288zM428 1192q28 122 80 184 t147 62q38 0 144.5 -38t136.5 -38q33 0 52 18.5t28 57.5h131q-50 -238 -215 -238q-47 0 -156.5 38t-134.5 38q-35 0 -55.5 -20t-32.5 -64h-125z" />
<glyph unicode="&#xf2;" horiz-adv-x="1232" d="M70 434q0 132 40.5 249.5t116 207.5t191.5 143t258 53q229 0 362 -121.5t133 -342.5q0 -93 -21.5 -183.5t-70 -175.5t-118.5 -149t-174 -103t-230 -39q-223 0 -355 126.5t-132 334.5zM356 436q0 -111 57.5 -177t155.5 -66q95 0 168 65.5t109.5 166t36.5 214.5 q0 106 -56 167.5t-157 61.5q-89 0 -161.5 -58.5t-112.5 -157.5t-40 -216zM416 1479h295l133 -295h-203z" />
<glyph unicode="&#xf3;" horiz-adv-x="1232" d="M70 434q0 132 40.5 249.5t116 207.5t191.5 143t258 53q229 0 362 -121.5t133 -342.5q0 -93 -21.5 -183.5t-70 -175.5t-118.5 -149t-174 -103t-230 -39q-223 0 -355 126.5t-132 334.5zM356 436q0 -111 57.5 -177t155.5 -66q95 0 168 65.5t109.5 166t36.5 214.5 q0 106 -56 167.5t-157 61.5q-89 0 -161.5 -58.5t-112.5 -157.5t-40 -216zM629 1184l194 295h307l-305 -295h-196z" />
<glyph unicode="&#xf4;" horiz-adv-x="1232" d="M70 434q0 132 40.5 249.5t116 207.5t191.5 143t258 53q229 0 362 -121.5t133 -342.5q0 -93 -21.5 -183.5t-70 -175.5t-118.5 -149t-174 -103t-230 -39q-223 0 -355 126.5t-132 334.5zM356 436q0 -111 57.5 -177t155.5 -66q95 0 168 65.5t109.5 166t36.5 214.5 q0 106 -56 167.5t-157 61.5q-89 0 -161.5 -58.5t-112.5 -157.5t-40 -216zM389 1184l289 297h268l148 -297h-207l-90 174l-179 -174h-229z" />
<glyph unicode="&#xf5;" horiz-adv-x="1232" d="M70 434q0 132 40.5 249.5t116 207.5t191.5 143t258 53q229 0 362 -121.5t133 -342.5q0 -93 -21.5 -183.5t-70 -175.5t-118.5 -149t-174 -103t-230 -39q-223 0 -355 126.5t-132 334.5zM356 436q0 -111 57.5 -177t155.5 -66q95 0 168 65.5t109.5 166t36.5 214.5 q0 106 -56 167.5t-157 61.5q-89 0 -161.5 -58.5t-112.5 -157.5t-40 -216zM383 1192q28 122 80 184t147 62q38 0 144.5 -38t136.5 -38q33 0 52 18.5t28 57.5h131q-50 -238 -215 -238q-47 0 -156.5 38t-134.5 38q-35 0 -55.5 -20t-32.5 -64h-125z" />
<glyph unicode="&#xf6;" horiz-adv-x="1232" d="M70 434q0 132 40.5 249.5t116 207.5t191.5 143t258 53q229 0 362 -121.5t133 -342.5q0 -93 -21.5 -183.5t-70 -175.5t-118.5 -149t-174 -103t-230 -39q-223 0 -355 126.5t-132 334.5zM356 436q0 -111 57.5 -177t155.5 -66q95 0 168 65.5t109.5 166t36.5 214.5 q0 106 -56 167.5t-157 61.5q-89 0 -161.5 -58.5t-112.5 -157.5t-40 -216zM410 1184l49 243h258l-49 -243h-258zM821 1184l49 243h258l-49 -243h-258z" />
<glyph unicode="&#xf7;" horiz-adv-x="1175" d="M281 399l55 258h586l-56 -258h-585zM332 0l63 295h303l-63 -295h-303zM494 764l63 297h303l-63 -297h-303z" />
<glyph unicode="&#xf8;" horiz-adv-x="1232" d="M27 4l135 137q-92 122 -92 299q0 133 42.5 251t119.5 206t192 139t252 51q196 0 317 -86l131 136l86 -82l-131 -133q95 -121 95 -299q0 -180 -74 -327.5t-215 -235t-324 -87.5q-195 0 -313 90l-139 -141zM350 426q0 -46 10 -80l457 473q-50 53 -147 53q-122 0 -221 -125 t-99 -321zM426 244q58 -58 143 -58q71 0 128.5 34t93 85t59.5 113.5t33.5 116.5t9.5 98q0 41 -12 82z" />
<glyph unicode="&#xf9;" horiz-adv-x="1251" d="M96 254q0 29 33 199l127 608h289l-129 -627q-23 -122 -23 -133q0 -48 35.5 -79.5t95.5 -31.5q83 0 153 55.5t109 133.5q26 52 45 145l113 537h289l-221 -1061h-273l31 145h-2q-156 -172 -377 -172q-140 0 -217.5 74t-77.5 207zM465 1479h295l133 -295h-203z" />
<glyph unicode="&#xfa;" horiz-adv-x="1251" d="M96 254q0 29 33 199l127 608h289l-129 -627q-23 -122 -23 -133q0 -48 35.5 -79.5t95.5 -31.5q83 0 153 55.5t109 133.5q26 52 45 145l113 537h289l-221 -1061h-273l31 145h-2q-156 -172 -377 -172q-140 0 -217.5 74t-77.5 207zM651 1184l195 295h307l-305 -295h-197z" />
<glyph unicode="&#xfb;" horiz-adv-x="1251" d="M96 254q0 29 33 199l127 608h289l-129 -627q-23 -122 -23 -133q0 -48 35.5 -79.5t95.5 -31.5q83 0 153 55.5t109 133.5q26 52 45 145l113 537h289l-221 -1061h-273l31 145h-2q-156 -172 -377 -172q-140 0 -217.5 74t-77.5 207zM410 1184l288 297h269l147 -297h-207 l-90 174l-178 -174h-229z" />
<glyph unicode="&#xfc;" horiz-adv-x="1251" d="M96 254q0 29 33 199l127 608h289l-129 -627q-23 -122 -23 -133q0 -48 35.5 -79.5t95.5 -31.5q83 0 153 55.5t109 133.5q26 52 45 145l113 537h289l-221 -1061h-273l31 145h-2q-156 -172 -377 -172q-140 0 -217.5 74t-77.5 207zM432 1184l49 243h258l-49 -243h-258z M844 1184l49 243h258l-49 -243h-258z" />
<glyph unicode="&#xfd;" horiz-adv-x="1101" d="M-57 -381l37 229q65 -14 108 -14q41 0 72.5 12.5t56 39.5t39.5 51.5t37 66.5l-187 1057h291l97 -787h2l385 787h311l-666 -1188q-32 -59 -58.5 -98t-61.5 -75.5t-74 -56.5t-91.5 -32t-119.5 -12q-76 0 -178 20zM547 1184l194 295h308l-306 -295h-196z" />
<glyph unicode="&#xfe;" horiz-adv-x="1239" d="M-68 -389l392 1853h288l-108 -514q52 46 85.5 70t93 45.5t128.5 21.5q101 0 177.5 -37t121 -100t66.5 -139t22 -162q0 -104 -23.5 -203t-71 -184.5t-113 -150t-154.5 -101.5t-191 -37q-93 0 -177.5 40.5t-133.5 129.5l-115 -532h-287zM403 436q0 -122 60 -184t145 -62 q77 0 138.5 46t95.5 117t51.5 144t17.5 138q0 110 -55.5 174.5t-146.5 64.5q-64 0 -117.5 -32t-87 -81t-57.5 -109.5t-34 -115t-10 -100.5z" />
<glyph unicode="&#xff;" horiz-adv-x="1101" d="M-57 -381l37 229q65 -14 108 -14q41 0 72.5 12.5t56 39.5t39.5 51.5t37 66.5l-187 1057h291l97 -787h2l385 787h311l-666 -1188q-32 -59 -58.5 -98t-61.5 -75.5t-74 -56.5t-91.5 -32t-119.5 -12q-76 0 -178 20zM328 1184l49 243h258l-49 -243h-258zM739 1184l49 243h259 l-50 -243h-258z" />
<glyph unicode="&#x152;" horiz-adv-x="2160" d="M104 582q0 143 33 277.5t99 249.5t157.5 200.5t214.5 134.5t264 49q114 0 209.5 -45.5t151.5 -132.5l31 149h997l-55 -258h-703l-67 -319h661l-53 -248h-662l-79 -381h743l-53 -258h-1026l24 119q-128 -148 -346 -148q-110 0 -206 38.5t-171.5 112.5t-119.5 192.5 t-44 267.5zM399 565q0 -154 79 -247t224 -93q138 0 228.5 82t142.5 256q72 246 72 404q0 136 -74.5 203t-204.5 67q-141 0 -249.5 -96t-163 -247t-54.5 -329z" />
<glyph unicode="&#x153;" horiz-adv-x="1914" d="M72 451q0 128 44 243.5t122 202.5t194.5 138.5t253.5 51.5q248 0 365 -161q68 76 169 118.5t205 42.5q206 0 329.5 -121t123.5 -339q0 -97 -18 -176h-750q-17 -122 45.5 -194.5t169.5 -72.5q140 0 223 148l275 -23q-146 -336 -516 -336q-124 0 -213.5 38.5t-153.5 127.5 q-139 -166 -395 -166q-120 0 -212.5 38.5t-148.5 105.5t-84 151.5t-28 182.5zM358 414q0 -96 55.5 -158.5t149.5 -62.5q78 0 139 42.5t96.5 111t53.5 146t18 156.5q0 99 -52.5 159t-147.5 60q-132 0 -222 -130t-90 -324zM1141 629h467q4 121 -48.5 183t-148.5 62 q-102 0 -171.5 -66t-98.5 -179z" />
<glyph unicode="&#x178;" horiz-adv-x="1347" d="M180 1464h324l246 -626l442 626h364l-692 -917l-112 -547h-314l119 569zM543 1634l49 244h258l-49 -244h-258zM954 1634l50 244h258l-50 -244h-258z" />
<glyph unicode="&#x2c6;" horiz-adv-x="731" d="M180 1184l289 297h268l148 -297h-207l-90 174l-178 -174h-230z" />
<glyph unicode="&#x2dc;" horiz-adv-x="831" d="M227 1192q28 122 80.5 184t147.5 62q38 0 144 -38t136 -38q33 0 52 18.5t28 57.5h131q-50 -238 -215 -238q-47 0 -156.5 38t-134.5 38q-35 0 -55.5 -20t-32.5 -64h-125z" />
<glyph unicode="&#x2000;" horiz-adv-x="983" />
<glyph unicode="&#x2001;" horiz-adv-x="1966" />
<glyph unicode="&#x2002;" horiz-adv-x="983" />
<glyph unicode="&#x2003;" horiz-adv-x="1966" />
<glyph unicode="&#x2004;" horiz-adv-x="655" />
<glyph unicode="&#x2005;" horiz-adv-x="491" />
<glyph unicode="&#x2006;" horiz-adv-x="327" />
<glyph unicode="&#x2007;" horiz-adv-x="327" />
<glyph unicode="&#x2008;" horiz-adv-x="245" />
<glyph unicode="&#x2009;" horiz-adv-x="393" />
<glyph unicode="&#x200a;" horiz-adv-x="109" />
<glyph unicode="&#x2010;" horiz-adv-x="757" d="M68 412l55 264h586l-56 -264h-585z" />
<glyph unicode="&#x2011;" horiz-adv-x="757" d="M68 412l55 264h586l-56 -264h-585z" />
<glyph unicode="&#x2012;" horiz-adv-x="757" d="M68 412l55 264h586l-56 -264h-585z" />
<glyph unicode="&#x2013;" horiz-adv-x="1081" d="M-31 430l27 229h1081l-26 -229h-1082z" />
<glyph unicode="&#x2014;" horiz-adv-x="2048" d="M-29 430l27 229h2048l-27 -229h-2048z" />
<glyph unicode="&#x2018;" horiz-adv-x="569" d="M193 846l55 272q35 175 126 265t255 90l-29 -138q-86 -4 -123.5 -49.5t-56.5 -142.5h141l-61 -297h-307z" />
<glyph unicode="&#x2019;" horiz-adv-x="569" d="M205 838l28 137q86 4 125 50.5t58 141.5h-144l62 297h307l-55 -272q-35 -174 -126 -264t-255 -90z" />
<glyph unicode="&#x201a;" horiz-adv-x="569" d="M-37 -330l29 137q86 4 123.5 50t56.5 143h-141l61 297h307l-55 -272q-35 -175 -126 -265t-255 -90z" />
<glyph unicode="&#x201c;" horiz-adv-x="1005" d="M197 846l55 272q35 175 126 265t255 90l-29 -138q-86 -4 -123.5 -49.5t-56.5 -142.5h141l-61 -297h-307zM653 846l56 272q35 175 126 265t255 90l-29 -138q-86 -4 -123.5 -49.5t-56.5 -142.5h141l-61 -297h-308z" />
<glyph unicode="&#x201d;" horiz-adv-x="1005" d="M199 838l28 137q86 4 124 49.5t57 142.5h-142l62 297h307l-55 -272q-35 -174 -126 -264t-255 -90zM655 838l29 137q86 4 123.5 49.5t56.5 142.5h-141l61 297h308l-56 -272q-35 -174 -126 -264t-255 -90z" />
<glyph unicode="&#x201e;" horiz-adv-x="1005" d="M-41 -330l29 137q86 4 123.5 50t56.5 143h-141l61 297h307l-55 -272q-35 -175 -126 -265t-255 -90zM416 -330l28 137q86 4 124 50t57 143h-142l62 297h307l-55 -272q-35 -175 -126 -265t-255 -90z" />
<glyph unicode="&#x2022;" horiz-adv-x="868" d="M143 727q0 137 97.5 234.5t234.5 97.5t234.5 -97.5t97.5 -234.5t-97.5 -234.5t-234.5 -97.5t-234.5 97.5t-97.5 234.5z" />
<glyph unicode="&#x2026;" horiz-adv-x="2048" d="M113 0l61 295h305l-63 -295h-303zM784 0l62 295h305l-64 -295h-303zM1460 0l62 295h305l-64 -295h-303z" />
<glyph unicode="&#x202f;" horiz-adv-x="393" />
<glyph unicode="&#x2039;" horiz-adv-x="606" d="M137 500l41 147l367 289l78 -131l-265 -268l146 -310l-123 -110z" />
<glyph unicode="&#x203a;" horiz-adv-x="606" d="M47 135l29 197l243 221l-147 299l123 111l244 -381l-68 -150z" />
<glyph unicode="&#x205f;" horiz-adv-x="491" />
<glyph unicode="&#x20ac;" horiz-adv-x="1435" d="M55 469v195h103q3 78 18 155h-121v195h176q88 222 260.5 350.5t387.5 128.5q227 0 374 -134.5t156 -373.5l-299 -14q-21 258 -233 258q-206 0 -326 -215h295v-195h-367q-16 -77 -22 -155h389v-195h-377q45 -238 260 -238q111 0 193.5 80.5t115.5 214.5l305 -22 q-81 -270 -242 -402.5t-382 -132.5q-230 0 -374.5 129.5t-178.5 370.5h-111z" />
<glyph unicode="&#x2122;" horiz-adv-x="2037" d="M211 1311v153h676v-153h-242v-678h-188v678h-246zM991 633v831h269l180 -573l180 573h268v-831h-178v637h-2l-197 -637h-145l-197 637h-2v-637h-176z" />
<glyph unicode="&#x25fc;" horiz-adv-x="1064" d="M0 0v1065h1065v-1065h-1065z" />
</font>
</defs>
</svg>
